<?xml version="1.0" ?><svg viewBox="0 0 32 32" xmlns="http://www.w3.org/2000/svg"><title/><g data-name="Layer 2" id="Layer_2"><path d="M28.88,2l-16,2A1,1,0,0,0,12,5V21.72A6.92,6.92,0,0,0,8,20.5c-3.31,0-6,2.13-6,4.75S4.69,30,8,30s6-2.13,6-4.75c0-.06,0-.13,0-.19s0,0,0-.06V10.88L28,9.13v8.59a6.92,6.92,0,0,0-4-1.22c-3.31,0-6,2.13-6,4.75S20.69,26,24,26s6-2.13,6-4.75c0-.06,0-.13,0-.19s0,0,0-.06V3a1,1,0,0,0-1.12-1ZM8,28c-2.17,0-4-1.26-4-2.75S5.83,22.5,8,22.5s4,1.26,4,2.75S10.17,28,8,28ZM14,8.87v-3L28,4.13v3ZM24,24c-2.17,0-4-1.26-4-2.75s1.83-2.75,4-2.75,4,1.26,4,2.75S26.17,24,24,24Z"/></g></svg>